<?xml version="1.0" encoding="UTF-8"?>
<svg version="1.1" xmlns="http://www.w3.org/2000/svg" width="24" height="22" viewBox="0 0 69 73" fill="currentColor">
<rect x="3" y="3" width="63" height="67" fill="none" stroke="currentColor" stroke-width="1"/>
<path d="M0,0 L32,0 L32,1 L31,1 L31,2 L29,2 L29,3 L27,3 L27,4 L26,4 L26,5 L24,5 L24,6 L22,6 L22,7 L21,7 L21,8 L19,8 L19,9 L17,9 L17,10 L16,10 L16,11 L14,11 L14,12 L13,12 L13,13 L11,13 L11,14 L9,14 L9,15 L8,15 L8,16 L6,16 L6,17 L4,17 L4,18 L3,18 L3,19 L1,19 L1,20 L0,20 Z " transform="translate(3,3)"/>
<path d="M0,0 L33,0 L33,20 L32,20 L32,19 L30,19 L30,18 L28,18 L28,17 L27,17 L27,16 L25,16 L25,15 L23,15 L23,14 L22,14 L22,13 L20,13 L20,12 L18,12 L18,11 L17,11 L17,10 L15,10 L15,9 L13,9 L13,8 L12,8 L12,7 L10,7 L10,6 L8,6 L8,5 L7,5 L7,4 L5,4 L5,3 L3,3 L3,2 L2,2 L2,1 L0,1 Z " transform="translate(36,3)"/>
<path d="M0,0 L1,0 L1,1 L2,1 L2,2 L4,2 L4,3 L6,3 L6,4 L7,4 L7,5 L9,5 L9,6 L11,6 L11,7 L12,7 L12,8 L14,8 L14,9 L16,9 L16,11 L14,11 L14,12 L12,12 L12,13 L11,13 L11,14 L9,14 L9,15 L7,15 L7,16 L6,16 L6,17 L4,17 L4,18 L2,18 L2,19 L1,19 L1,20 L0,20 L0,42 L2,42 L2,43 L3,43 L3,44 L5,44 L5,45 L7,45 L7,46 L8,46 L8,47 L10,47 L10,48 L12,48 L12,49 L13,49 L13,50 L15,50 L15,51 L17,51 L17,52 L-16,52 L-16,10 L-15,10 L-15,9 L-13,9 L-13,8 L-12,8 L-12,7 L-10,7 L-10,6 L-8,6 L-8,5 L-7,5 L-7,4 L-5,4 L-5,3 L-3,3 L-3,2 L-2,2 L-2,1 L0,1 Z " transform="translate(34,24)"/>
<path d="M0,0 L1,0 L1,19 L-1,19 L-1,18 L-3,18 L-3,17 L-4,17 L-4,16 L-6,16 L-6,15 L-8,15 L-8,14 L-9,14 L-9,13 L-11,13 L-11,12 L-13,12 L-13,11 L-14,11 L-14,10 L-15,10 L-15,9 L-14,9 L-14,8 L-12,8 L-12,7 L-10,7 L-10,6 L-9,6 L-9,5 L-7,5 L-7,4 L-5,4 L-5,3 L-4,3 L-4,2 L-2,2 L-2,1 L0,1 Z " transform="translate(68,45)"/>
<path d="M0,0 L1,0 L1,1 L3,1 L3,2 L5,2 L5,3 L6,3 L6,4 L8,4 L8,5 L10,5 L10,6 L11,6 L11,7 L13,7 L13,8 L15,8 L15,9 L16,9 L16,10 L0,10 Z " transform="translate(3,66)"/>
<path d="M0,0 L2,0 L2,10 L-15,10 L-15,9 L-13,9 L-13,8 L-12,8 L-12,7 L-10,7 L-10,6 L-8,6 L-8,5 L-7,5 L-7,4 L-5,4 L-5,3 L-3,3 L-3,2 L-2,2 L-2,1 L0,1 Z " transform="translate(67,66)"/>
</svg>
